<svg xmlns="http://www.w3.org/2000/svg" viewBox="0 0 800 276.57">
    <defs>
        <style>.cls-1{fill:#01a4cf;}.cls-2{fill:#4444a4;}</style>
    </defs>
    <g id="レイヤー_2" data-name="レイヤー 2">
        <g id="レイヤー_1-2" data-name="レイヤー 1">
            <rect class="cls-1" y="144.28" width="63.73" height="122.96"/>
            <path class="cls-2"
                  d="M63.73,132.28V67.72a7.83,7.83,0,0,1,7.84-7.83,7.75,7.75,0,0,1,7.18,4.74l25.49,67.65h59.22L127.66,35A42.5,42.5,0,0,0,88.6,9.31h-46A42.66,42.66,0,0,0,0,52v80.3Z"/>
            <path class="cls-1"
                  d="M331.3,144.28H208.79v64.56a7.84,7.84,0,0,1-7.84,7.84,7.75,7.75,0,0,1-7.18-4.75l-25.49-67.65H109.06l35.8,97.25a42.5,42.5,0,0,0,39.06,25.71h46a42.66,42.66,0,0,0,42.64-42.66V164.53a138.47,138.47,0,0,0,129.89,112l0-61.15a77.39,77.39,0,0,1-71.14-71.14"/>
            <path class="cls-2"
                  d="M402.4,0A138.46,138.46,0,0,0,272.52,112V9.32H208.78v123H331.3a77.37,77.37,0,0,1,71.13-71.13Z"/>
            <path class="cls-2"
                  d="M800,9.32H700.06a42.51,42.51,0,0,0-30.13,12.43l-62,60V9.32H544.18V111.25A138.43,138.43,0,0,0,414.47,0l0,61.15a77.37,77.37,0,0,1,71.13,71.13h155L709.23,67a22.12,22.12,0,0,1,15.67-6.48H800Z"/>
            <path class="cls-1"
                  d="M800,267.25H700.06a42.52,42.52,0,0,1-30.13-12.44l-62-60v72.46H544.18V165.32A138.44,138.44,0,0,1,414.47,276.57l0-61.16a77.36,77.36,0,0,0,71.13-71.13h155l68.71,65.26A22.09,22.09,0,0,0,724.9,216H800Z"/>
        </g>
    </g>
</svg>